<?xml version="1.0"?>
<svg width="300" height="300" xmlns="http://www.w3.org/2000/svg" xmlns:svg="http://www.w3.org/2000/svg">
 <!-- Created with SVG-edit - https://github.com/SVG-Edit/svgedit-->
 <g class="layer">
  <title>Layer 1</title>
  <rect fill="#000000" height="300" id="svg_1" stroke="#000000" stroke-width="0" width="300" x="0" y="0"/>
  <rect fill="#ffffff" height="100" id="svg_2" rx="12" ry="12" stroke="#000000" stroke-width="0" width="250" x="25" y="100"/>
  <rect fill="#ffffff" height="40" id="svg_3" rx="6" ry="6" stroke="#000000" stroke-width="0" transform="matrix(1 0 0 1 0 0) rotate(-20 60 55)" width="10" x="55" y="35"/>
  <rect fill="#ffffff" height="40" id="svg_4" rx="6" ry="6" stroke="#000000" stroke-width="0" transform="matrix(1 0 0 1 0 0)" width="10" x="145" y="35"/>
  <rect fill="#ffffff" height="40" id="svg_5" rx="6" ry="6" stroke="#000000" stroke-width="0" transform="matrix(0.939693 0.34202 -0.34202 0.939693 33.2849 -78.7679)" width="10" x="235" y="35"/>
  <rect fill="#ffffff" height="40" id="svg_6" rx="6" ry="6" stroke="#000000" stroke-width="0" transform="matrix(1 0 0 1 0 0) rotate(20 60 245)" width="10" x="55" y="225"/>
  <rect fill="#ffffff" height="40" id="svg_7" rx="6" ry="6" stroke="#000000" stroke-width="0" transform="matrix(1 0 0 1 0 0)" width="10" x="145" y="225"/>
  <rect fill="#ffffff" height="40" id="svg_8" rx="6" ry="6" stroke="#000000" stroke-width="0" transform="rotate(-20 240 245)" width="10" x="235" y="225"/>
 </g>
</svg>